# xmcd
#
# Track frame offsets:
#	150
#	15423
#	28596
#
# Disc length: 587 seconds
#
# Revision: 0
# Processed by: cddbd v1.5.2PL0 Copyright (c) Steve Scherf et al.
# Submitted via: audiograbber 1.83.01
#
DISCID=15024903
DTITLE=Rascal Flatts - Greatest Hits Volume 1 - Disc 2
DYEAR=2008
DGENRE=
TTITLE0=White Christmas
TTITLE1=Jingle Bell Rock
TTITLE2=I'll Be Home For Christmas
EXTD=
EXTT0=
EXTT1=
EXTT2=
PLAYORDER=
